<svg width="22" height="17" viewBox="0 0 22 17" fill="none" xmlns="http://www.w3.org/2000/svg">
<path d="M21 3.25V13.75C21 14.3467 20.7569 14.919 20.3241 15.341C19.8913 15.7629 19.3043 16 18.6923 16H3.30769C2.69565 16 2.10868 15.7629 1.67591 15.341C1.24313 14.919 1 14.3467 1 13.75V3.25M21 3.25C21 2.65326 20.7569 2.08097 20.3241 1.65901C19.8913 1.23705 19.3043 1 18.6923 1H3.30769C2.69565 1 2.10868 1.23705 1.67591 1.65901C1.24313 2.08097 1 2.65326 1 3.25M21 3.25V3.493C21 3.87715 20.8992 4.25491 20.7071 4.5903C20.515 4.92569 20.238 5.20754 19.9026 5.409L12.2103 10.024C11.8464 10.2425 11.4274 10.3582 11 10.3582C10.5726 10.3582 10.1536 10.2425 9.78974 10.024L2.09744 5.41C1.76197 5.20854 1.48499 4.92669 1.29289 4.5913C1.10079 4.25591 0.999956 3.87815 1 3.494V3.25" stroke="#2C2929" stroke-width="1.5" stroke-linecap="round" stroke-linejoin="round"/>
</svg>
