<svg width="16" height="15" viewBox="0 0 16 15" fill="none" xmlns="http://www.w3.org/2000/svg">
<path fill-rule="evenodd" clip-rule="evenodd" d="M0 7.48129C0 7.28238 0.0766261 7.09162 0.213022 6.95096C0.349417 6.81031 0.534409 6.73129 0.727302 6.73129H13.5181L8.21366 1.26129C8.08519 1.11912 8.01525 0.93107 8.01857 0.736769C8.0219 0.542468 8.09823 0.357083 8.23148 0.21967C8.36474 0.0822568 8.54451 0.00354506 8.73293 0.000116847C8.92135 -0.00331137 9.10371 0.0688116 9.24158 0.201292L15.7873 6.95129C15.9235 7.09192 16 7.28254 16 7.48129C16 7.68004 15.9235 7.87067 15.7873 8.01129L9.24158 14.7613C9.175 14.835 9.0947 14.8941 9.00549 14.9351C8.91627 14.9761 8.81996 14.9981 8.72231 14.9999C8.62465 15.0017 8.52765 14.9831 8.43709 14.9454C8.34653 14.9077 8.26426 14.8516 8.1952 14.7803C8.12614 14.7091 8.07169 14.6243 8.03511 14.5309C7.99853 14.4375 7.98057 14.3375 7.98229 14.2368C7.98401 14.1361 8.00539 14.0368 8.04514 13.9448C8.08489 13.8528 8.14221 13.77 8.21366 13.7013L13.5181 8.23129H0.727302C0.534409 8.23129 0.349417 8.15228 0.213022 8.01162C0.0766261 7.87097 0 7.6802 0 7.48129Z" fill="white"/>
</svg>
