<svg xmlns="http://www.w3.org/2000/svg" width="24" height="24" fill="none">
  <mask id="a" fill="#fff">
    <path fill-rule="evenodd" d="M16.28 11.47a.75.75 0 0 1 0 1.06l-7.5 7.5a.75.75 0 0 1-1.06-1.06L14.69 12 7.72 5.03a.75.75 0 0 1 1.06-1.06l7.5 7.5Z" clip-rule="evenodd"/>
  </mask>
  <path fill="#fff" fill-rule="evenodd" d="M16.28 11.47a.75.75 0 0 1 0 1.06l-7.5 7.5a.75.75 0 0 1-1.06-1.06L14.69 12 7.72 5.03a.75.75 0 0 1 1.06-1.06l7.5 7.5Z" clip-rule="evenodd"/>
  <path fill="#fff" d="m16.28 11.47 1.061-1.06-1.061 1.06Zm0 1.06 1.06 1.06h.001l-1.061-1.06Zm-7.5 7.5 1.023 1.097.019-.018.019-.019-1.061-1.06Zm-1.06-1.06-1.06-1.06-.02.018-.017.02L7.72 18.97ZM14.69 12l1.06 1.06L16.812 12l-1.06-1.06L14.69 12ZM7.72 5.03 6.623 6.052l.018.02.018.019L7.72 5.03Zm1.06-1.06 1.06-1.06-.018-.02-.02-.018L8.78 3.97Zm6.439 8.56a.75.75 0 0 1-.22-.53h3a2.25 2.25 0 0 0-.658-1.59l-2.122 2.12Zm-.22-.53a.75.75 0 0 1 .22-.53l2.122 2.12A2.25 2.25 0 0 0 18 12h-3Zm.22-.53-7.5 7.5 2.122 2.12 7.5-7.5-2.122-2.12Zm-7.462 7.462a.75.75 0 0 1 .525-.2l-.053 2.999a2.25 2.25 0 0 0 1.574-.604l-2.046-2.195Zm.525-.2a.75.75 0 0 1 .517.219l-2.121 2.121a2.25 2.25 0 0 0 1.551.659l.053-3Zm.517.219a.75.75 0 0 1 .22.517l-3 .053c.01.583.247 1.139.659 1.551l2.121-2.121Zm.22.517a.75.75 0 0 1-.202.524l-2.194-2.045a2.25 2.25 0 0 0-.604 1.574l3-.053Zm-.238.563 6.97-6.97-2.122-2.122-6.97 6.97 2.122 2.122Zm6.97-9.092L8.78 3.97 6.659 6.091l6.97 6.97 2.122-2.122ZM8.817 4.007a.75.75 0 0 1 .202.525l-3-.053a2.25 2.25 0 0 0 .604 1.573l2.194-2.045Zm.202.525a.75.75 0 0 1-.22.517L6.678 2.928a2.25 2.25 0 0 0-.659 1.55l3 .054Zm-.22.517a.75.75 0 0 1-.517.22l-.053-3a2.25 2.25 0 0 0-1.551.659l2.121 2.12Zm-.517.22a.75.75 0 0 1-.525-.202l2.046-2.195a2.25 2.25 0 0 0-1.574-.603l.053 3Zm-.563-.238 7.5 7.5 2.122-2.122-7.5-7.5-2.122 2.122Z" mask="url(#a)"/>

</svg>
