<svg xmlns="http://www.w3.org/2000/svg" width="24" height="24" fill="none">
  <mask id="a" fill="#fff">
    <path fill-rule="evenodd" d="M7.72 12.53a.75.75 0 0 1 0-1.06l7.5-7.5a.75.75 0 1 1 1.06 1.06L9.31 12l6.97 6.97a.75.75 0 1 1-1.06 1.06l-7.5-7.5Z" clip-rule="evenodd"/>
  </mask>
  <path fill="#fff" fill-rule="evenodd" d="M7.72 12.53a.75.75 0 0 1 0-1.06l7.5-7.5a.75.75 0 1 1 1.06 1.06L9.31 12l6.97 6.97a.75.75 0 1 1-1.06 1.06l-7.5-7.5Z" clip-rule="evenodd"/>
  <path fill="#fff" d="M7.72 12.53 6.66 13.59l1.061-1.06ZM7.501 12h1.5-1.5Zm.22-.53L6.66 10.41h-.001l1.061 1.06Zm7.5-7.5 1.06 1.06.019-.018.018-.02L15.22 3.97Zm1.06 1.06-1.023-1.097-.02.018-.018.018 1.06 1.061ZM9.31 12 8.25 10.94 7.189 12l1.06 1.06L9.31 12Zm6.97 6.97-1.061 1.06.018.02.02.018 1.022-1.098Zm-1.06 1.06 1.097-1.022-.018-.02-.019-.018-1.06 1.06Zm-6.44-8.56c.141.14.22.331.22.53h-3c0 .596.237 1.168.658 1.59l2.123-2.12Zm.22.53a.75.75 0 0 1-.22.53L6.66 10.41A2.25 2.25 0 0 0 6.001 12h3Zm-.22.53 7.5-7.5-2.121-2.12-7.5 7.5 2.121 2.12Zm7.537-7.537a.75.75 0 0 1-.244.174l-1.22-2.74a2.25 2.25 0 0 0-.731.52l2.195 2.046Zm-.244.174a.75.75 0 0 1-.292.064l-.053-3a2.25 2.25 0 0 0-.876.195l1.221 2.74Zm-.292.064a.75.75 0 0 1-.294-.054l1.124-2.782a2.25 2.25 0 0 0-.883-.163l.053 3Zm-.294-.054a.75.75 0 0 1-.25-.165L17.36 2.89a2.249 2.249 0 0 0-.748-.495l-1.124 2.782Zm-.25-.165a.75.75 0 0 1-.164-.25l2.781-1.123a2.25 2.25 0 0 0-.495-.749l-2.121 2.122Zm-.164-.25a.752.752 0 0 1-.055-.294l3 .053a2.252 2.252 0 0 0-.164-.882l-2.781 1.123Zm-.055-.294a.75.75 0 0 1 .065-.292l2.74 1.221a2.25 2.25 0 0 0 .195-.876l-3-.053Zm.065-.292c.04-.092.1-.175.174-.243l2.045 2.195c.221-.206.398-.455.521-.73l-2.74-1.222Zm.136-.207-6.97 6.97 2.121 2.122 6.97-6.97-2.121-2.122Zm-6.97 9.092 6.97 6.97 2.121-2.121-6.97-6.97-2.121 2.12Zm7.008 7.007a.749.749 0 0 1-.174-.244l2.74-1.22a2.248 2.248 0 0 0-.521-.731l-2.045 2.195Zm-.174-.244a.75.75 0 0 1-.065-.292l3-.053a2.251 2.251 0 0 0-.195-.876l-2.74 1.221Zm-.065-.292c-.002-.1.017-.2.055-.294l2.781 1.123c.113-.28.169-.58.164-.882l-3 .053Zm.055-.294a.75.75 0 0 1 .165-.25l2.121 2.122a2.25 2.25 0 0 0 .495-.748l-2.781-1.124Zm.165-.25a.751.751 0 0 1 .25-.165l1.123 2.782a2.25 2.25 0 0 0 .748-.495l-2.121-2.122Zm.25-.165a.75.75 0 0 1 .293-.054l-.053 3c.302.005.602-.05.883-.164l-1.124-2.782Zm.293-.054c.101.002.2.024.292.065l-1.22 2.74c.275.123.573.19.875.194l.053-2.999Zm.292.065a.75.75 0 0 1 .244.174l-2.195 2.045c.206.22.454.398.73.521l1.221-2.74Zm.207.136-7.5-7.5-2.121 2.12 7.5 7.5 2.121-2.12Z" mask="url(#a)"/>

</svg>
