<svg xmlns="http://www.w3.org/2000/svg" width="24" height="24" fill="none">
<path d="M7.94 3.547a.982.982 0 0 0-.239.126c-.592.406-.581 1.26.021 1.667l.178.12 4.599.011 4.599.01-6.724 6.73c-7.44 7.445-6.88 6.843-6.847 7.363.032.509.39.867.899.899.52.033-.082.593 7.363-6.847l6.73-6.724.01 4.599.011 4.599.108.167c.207.317.471.46.852.462.413.001.74-.205.895-.567l.086-.199-.011-5.894-.01-5.895-.121-.196a1.042 1.042 0 0 0-.317-.317l-.196-.121-5.903-.005c-3.247-.002-5.939.003-5.983.012" fill-rule="evenodd" fill="#000"/>
</svg>