<svg xmlns="http://www.w3.org/2000/svg" width="32" height="32" fill="none">
<path d="M16.449 9.062c-.17.073-.388.361-.425.563a.85.85 0 0 0 .024.358c.04.122.9 1.046 2.745 2.95l2.687 2.774-6.513.026c-6.171.026-6.521.032-6.656.123-.173.118-.311.394-.311.624 0 .23.138.506.311.624.135.091.485.097 6.656.123l6.514.026-2.639 2.72c-1.452 1.496-2.685 2.792-2.741 2.88-.218.347-.078.886.279 1.07.211.11.573.079.75-.063.275-.22 6.69-6.867 6.78-7.024.124-.217.096-.61-.056-.803-.111-.142-6.247-6.471-6.592-6.801a.595.595 0 0 0-.446-.199 1.053 1.053 0 0 0-.367.029" fill="#fff" fill-rule="evenodd"/>
</svg>