<svg xmlns="http://www.w3.org/2000/svg">

<symbol>
<path id="star" d="M7.65335 2.33265C7.68155 2.26387 7.72957 2.20503 7.7913 2.16362C7.85303 2.12221 7.92568 2.1001 8.00002 2.1001C8.07435 2.1001 8.14701 2.12221 8.20874 2.16362C8.27047 2.20503 8.31849 2.26387 8.34669 2.33265L9.76335 5.73998C9.78987 5.80374 9.83346 5.85894 9.88933 5.89952C9.9452 5.9401 10.0112 5.96448 10.08 5.96998L13.7587 6.26465C14.0914 6.29131 14.226 6.70665 13.9727 6.92331L11.17 9.32465C11.1177 9.36944 11.0786 9.42778 11.0572 9.49328C11.0358 9.55878 11.0329 9.62891 11.0487 9.69598L11.9054 13.286C11.9226 13.358 11.9181 13.4335 11.8924 13.503C11.8667 13.5724 11.821 13.6327 11.7611 13.6763C11.7012 13.7198 11.6297 13.7445 11.5557 13.7475C11.4817 13.7504 11.4085 13.7313 11.3454 13.6926L8.19535 11.7693C8.13651 11.7335 8.06893 11.7145 8.00002 11.7145C7.93111 11.7145 7.86353 11.7335 7.80469 11.7693L4.65469 13.6933C4.59152 13.732 4.51832 13.7511 4.44432 13.7481C4.37033 13.7452 4.29885 13.7204 4.23893 13.6769C4.17901 13.6334 4.13333 13.5731 4.10765 13.5036C4.08198 13.4342 4.07747 13.3587 4.09469 13.2866L4.95135 9.69598C4.96724 9.62891 4.96432 9.55876 4.94291 9.49325C4.92151 9.42773 4.88244 9.36939 4.83002 9.32465L2.02735 6.92331C1.97123 6.87505 1.93063 6.81128 1.91065 6.74C1.89068 6.66873 1.89222 6.59314 1.9151 6.52274C1.93797 6.45235 1.98114 6.39028 2.0392 6.34436C2.09725 6.29844 2.16758 6.2707 2.24135 6.26465L5.92002 5.96998C5.98885 5.96448 6.05483 5.9401 6.1107 5.89952C6.16657 5.85894 6.21017 5.80374 6.23669 5.73998L7.65335 2.33265Z" fill="#FFF4A8" stroke="#FFF4A8" stroke-width="1.5" stroke-linecap="round" stroke-linejoin="round"/>
</symbol>

<symbol>
<path id="search"
d="M9.822 2.283c-2.65.216-5.05 1.724-6.433 4.043-1.082 1.815-1.412 4.172-.871 6.236a8.164 8.164 0 0 0 2.16 3.76 8.173 8.173 0 0 0 4.662 2.34c.589.087 1.731.087 2.32 0a8.458 8.458 0 0 0 3.8-1.578l.32-.239 2.42 2.414c2.329 2.322 2.427 2.414 2.61 2.452.58.12 1.021-.321.901-.901-.038-.183-.13-.281-2.452-2.61l-2.414-2.42.239-.32a8.59 8.59 0 0 0 1.417-2.98c.31-1.237.31-2.72 0-3.96a8.318 8.318 0 0 0-3.573-4.975c-1.468-.94-3.35-1.405-5.106-1.262m1.738 1.555c2.466.418 4.423 2.037 5.284 4.372.834 2.264.341 4.894-1.261 6.718A6.7 6.7 0 0 1 10.5 17.24a6.728 6.728 0 0 1-6.74-6.74 6.62 6.62 0 0 1 1.977-4.763C6.755 4.718 7.973 4.09 9.416 3.839c.58-.101 1.548-.102 2.144-.001" fill-rule="evenodd" fill="#000"
 />
</symbol>

<symbol>
<path id="heart" 
d="M7.06 3.041c-2.38.268-4.32 2.047-4.723 4.332-.076.427-.084 1.368-.018 1.947.389 3.396 2.618 6.737 6.461 9.685 1.062.815 2.688 1.866 3.029 1.957.305.082.499.003 1.448-.59 2.844-1.778 5.295-4.111 6.714-6.392 1.178-1.893 1.749-3.728 1.756-5.64.004-1.18-.256-2.046-.901-3-.862-1.276-2.353-2.138-3.986-2.303-1.754-.177-3.444.48-4.67 1.816l-.17.185-.17-.185c-.842-.917-1.849-1.492-3.042-1.736a6.704 6.704 0 0 0-1.728-.076m1.528 1.562a3.939 3.939 0 0 1 2.673 2.07c.171.33.315.46.583.527.382.096.655-.066.896-.529.561-1.079 1.478-1.787 2.692-2.076.658-.157 1.627-.095 2.268.146 1.019.384 1.757 1.051 2.197 1.984.252.535.307.769.331 1.421.065 1.717-.53 3.562-1.724 5.347-1.372 2.05-3.57 4.08-6.174 5.702l-.33.206-.33-.206c-2.604-1.622-4.802-3.652-6.174-5.702-1.194-1.785-1.789-3.63-1.724-5.347.024-.652.079-.886.331-1.421.779-1.654 2.654-2.541 4.485-2.122" fill-rule="evenodd" fill="#000"
/>
</symbol>

<symbol>
<path id="basket"
 d="M2.094 2.278c-.657.157-.791 1.029-.208 1.362.168.097.203.1 1.034.113.797.012.866.019.947.094a.617.617 0 0 1 .128.187c.023.058.601 2.212 1.286 4.786l1.262 4.743c.013.046-.041.081-.213.134a3.82 3.82 0 0 0-1.52.958c-.636.672-.981 1.452-1.037 2.35-.022.344-.015.405.063.566a.852.852 0 0 0 .252.295l.165.114 7.984.012c4.39.006 8.062 0 8.158-.014.256-.036.547-.332.587-.597.051-.34-.094-.634-.384-.782-.152-.078-.269-.079-7.676-.079-7.174 0-7.522-.003-7.522-.071 0-.138.304-.581.57-.833.149-.14.378-.31.51-.376.496-.25.183-.239 6.52-.24 4.094 0 5.827-.013 5.94-.045.272-.075.405-.266.837-1.198a69.086 69.086 0 0 0 1.551-3.617c.377-.963 1.003-2.709 1.05-2.927.056-.261-.125-.622-.377-.753-.152-.078-1.763-.46-3.041-.72-3.993-.814-7.904-1.217-11.827-1.219L5.686 4.52l-.04-.13a19.105 19.105 0 0 1-.147-.528 4.012 4.012 0 0 0-.207-.598c-.251-.495-.831-.905-1.392-.983-.323-.045-1.619-.047-1.806-.003m7.36 3.782a57.62 57.62 0 0 1 7.306.783c1.383.235 3.797.74 3.866.81.084.084-1.333 3.622-2.102 5.247l-.283.6-5.079.01-5.08.01-.059-.21C7.94 13.02 6.08 6.035 6.08 6.016c0-.039 2.262-.01 3.374.044M4.772 18.832a1.563 1.563 0 0 0-.901.831c-.074.161-.091.267-.091.577 0 .334.014.41.115.629a1.487 1.487 0 1 0 1.974-1.971c-.328-.148-.789-.176-1.097-.066m12.799-.016c-.414.135-.74.423-.926.819-.091.196-.105.276-.105.625 0 .347.014.429.103.62.529 1.126 2.177 1.126 2.712 0 .092-.192.105-.271.105-.621 0-.371-.01-.42-.13-.665-.25-.508-.701-.8-1.27-.821a1.59 1.59 0 0 0-.489.043" fill-rule="evenodd"
 />
</symbol>

<symbol>
<path id="user"
 d="M11.42 2.283c-2.311.135-4.451 1.067-6.157 2.68-.854.808-1.712 2.029-2.17 3.091a9.493 9.493 0 0 0-.809 3.414c-.153 2.723.799 5.289 2.706 7.295 1.652 1.737 3.953 2.801 6.391 2.956a9.712 9.712 0 0 0 9.318-5.345 9.826 9.826 0 0 0 .982-3.274c.048-.381.06-1.634.019-2.014-.222-2.066-1.004-3.901-2.311-5.428a9.723 9.723 0 0 0-7.969-3.375m1.648 1.538a8.252 8.252 0 0 1 6.908 6.078c.203.763.267 1.275.267 2.126a8.17 8.17 0 0 1-2.192 5.575 5.2 5.2 0 0 1-.365-.324 8.397 8.397 0 0 0-4.586-2.202c-.464-.068-1.736-.068-2.2 0a8.397 8.397 0 0 0-4.586 2.202 4.46 4.46 0 0 1-.368.324c-.012 0-.15-.156-.308-.348a8.24 8.24 0 0 1-1.874-5.713 8.348 8.348 0 0 1 1.826-4.74c.308-.383.985-1.035 1.394-1.345 1.21-.916 2.594-1.483 4.029-1.65.49-.057 1.551-.048 2.055.017m-1.621 2.225c-1.237.177-2.395 1.072-2.883 2.228-.846 2.004.163 4.296 2.204 5.006.419.146.75.199 1.232.199s.813-.053 1.232-.199c2.039-.709 3.049-3.004 2.204-5.006-.649-1.537-2.315-2.468-3.989-2.228m1.112 1.52c.718.154 1.423.86 1.621 1.622.078.299.076.837-.003 1.146-.182.704-.775 1.326-1.497 1.571-.164.056-.337.074-.68.074-.697 0-1.122-.175-1.6-.659-.441-.447-.64-.935-.64-1.567 0-.391.071-.699.238-1.03.136-.268.492-.671.752-.85.496-.341 1.142-.451 1.809-.307m.501 9.018a6.706 6.706 0 0 1 3.538 1.728l.333.308-.376.255c-.72.488-1.779.945-2.697 1.163-1.142.272-2.581.27-3.735-.004-.903-.215-1.956-.669-2.675-1.155l-.372-.251.132-.137c.073-.076.276-.26.452-.409a6.758 6.758 0 0 1 5.4-1.498" fill-rule="evenodd" fill="#000"
 />
</symbol>

<symbol>
<path id="burger" d="M3.54 6.034c-.739.242-.696 1.28.059 1.442.29.062 16.512.062 16.802 0a.743.743 0 0 0 .589-.82c-.024-.207-.104-.334-.326-.514l-.151-.122-8.447-.006c-4.645-.004-8.482.005-8.526.02m.031 5.245c-.176.042-.305.132-.438.307-.098.128-.113.183-.113.417 0 .24.013.286.122.423a1.1 1.1 0 0 0 .299.244l.176.09h16.766l.176-.09a1.1 1.1 0 0 0 .299-.244c.109-.137.122-.182.122-.426 0-.245-.012-.288-.124-.426a1.21 1.21 0 0 0-.26-.234c-.135-.079-.214-.08-8.516-.086-4.609-.004-8.438.008-8.509.025m-.151 5.304a.662.662 0 0 0-.345.357.748.748 0 0 0-.02.591.982.982 0 0 0 .438.427C3.571 17.987 6.177 18 12 18c5.823 0 8.429-.013 8.507-.042a.982.982 0 0 0 .438-.427.733.733 0 0 0-.007-.561.635.635 0 0 0-.346-.374c-.145-.074-.386-.076-8.6-.076-7.586 0-8.464.007-8.572.063" fill-rule="evenodd" fill="#000"/>
</symbol>

<symbol>
    <path id="swiper-left-arrow" fill-rule="evenodd" d="M7.72 12.53a.75.75 0 0 1 0-1.06l7.5-7.5a.75.75 0 1 1 1.06 1.06L9.31 12l6.97 6.97a.75.75 0 1 1-1.06 1.06l-7.5-7.5Z" clip-rule="evenodd"/>
  <path fill="#fff" fill-rule="evenodd" d="M7.72 12.53a.75.75 0 0 1 0-1.06l7.5-7.5a.75.75 0 1 1 1.06 1.06L9.31 12l6.97 6.97a.75.75 0 1 1-1.06 1.06l-7.5-7.5Z" clip-rule="evenodd"/>
  <path fill="#fff" d="M7.72 12.53 6.66 13.59l1.061-1.06ZM7.501 12h1.5-1.5Zm.22-.53L6.66 10.41h-.001l1.061 1.06Zm7.5-7.5 1.06 1.06.019-.018.018-.02L15.22 3.97Zm1.06 1.06-1.023-1.097-.02.018-.018.018 1.06 1.061ZM9.31 12 8.25 10.94 7.189 12l1.06 1.06L9.31 12Zm6.97 6.97-1.061 1.06.018.02.02.018 1.022-1.098Zm-1.06 1.06 1.097-1.022-.018-.02-.019-.018-1.06 1.06Zm-6.44-8.56c.141.14.22.331.22.53h-3c0 .596.237 1.168.658 1.59l2.123-2.12Zm.22.53a.75.75 0 0 1-.22.53L6.66 10.41A2.25 2.25 0 0 0 6.001 12h3Zm-.22.53 7.5-7.5-2.121-2.12-7.5 7.5 2.121 2.12Zm7.537-7.537a.75.75 0 0 1-.244.174l-1.22-2.74a2.25 2.25 0 0 0-.731.52l2.195 2.046Zm-.244.174a.75.75 0 0 1-.292.064l-.053-3a2.25 2.25 0 0 0-.876.195l1.221 2.74Zm-.292.064a.75.75 0 0 1-.294-.054l1.124-2.782a2.25 2.25 0 0 0-.883-.163l.053 3Zm-.294-.054a.75.75 0 0 1-.25-.165L17.36 2.89a2.249 2.249 0 0 0-.748-.495l-1.124 2.782Zm-.25-.165a.75.75 0 0 1-.164-.25l2.781-1.123a2.25 2.25 0 0 0-.495-.749l-2.121 2.122Zm-.164-.25a.752.752 0 0 1-.055-.294l3 .053a2.252 2.252 0 0 0-.164-.882l-2.781 1.123Zm-.055-.294a.75.75 0 0 1 .065-.292l2.74 1.221a2.25 2.25 0 0 0 .195-.876l-3-.053Zm.065-.292c.04-.092.1-.175.174-.243l2.045 2.195c.221-.206.398-.455.521-.73l-2.74-1.222Zm.136-.207-6.97 6.97 2.121 2.122 6.97-6.97-2.121-2.122Zm-6.97 9.092 6.97 6.97 2.121-2.121-6.97-6.97-2.121 2.12Zm7.008 7.007a.749.749 0 0 1-.174-.244l2.74-1.22a2.248 2.248 0 0 0-.521-.731l-2.045 2.195Zm-.174-.244a.75.75 0 0 1-.065-.292l3-.053a2.251 2.251 0 0 0-.195-.876l-2.74 1.221Zm-.065-.292c-.002-.1.017-.2.055-.294l2.781 1.123c.113-.28.169-.58.164-.882l-3 .053Zm.055-.294a.75.75 0 0 1 .165-.25l2.121 2.122a2.25 2.25 0 0 0 .495-.748l-2.781-1.124Zm.165-.25a.751.751 0 0 1 .25-.165l1.123 2.782a2.25 2.25 0 0 0 .748-.495l-2.121-2.122Zm.25-.165a.75.75 0 0 1 .293-.054l-.053 3c.302.005.602-.05.883-.164l-1.124-2.782Zm.293-.054c.101.002.2.024.292.065l-1.22 2.74c.275.123.573.19.875.194l.053-2.999Zm.292.065a.75.75 0 0 1 .244.174l-2.195 2.045c.206.22.454.398.73.521l1.221-2.74Zm.207.136-7.5-7.5-2.121 2.12 7.5 7.5 2.121-2.12Z" mask="url(#a)"/>
</symbol>

<symbol>
    <path id="swiper-right-arrow" fill-rule="evenodd" d="M16.28 11.47a.75.75 0 0 1 0 1.06l-7.5 7.5a.75.75 0 0 1-1.06-1.06L14.69 12 7.72 5.03a.75.75 0 0 1 1.06-1.06l7.5 7.5Z" clip-rule="evenodd"/>
  <path fill="#fff" fill-rule="evenodd" d="M16.28 11.47a.75.75 0 0 1 0 1.06l-7.5 7.5a.75.75 0 0 1-1.06-1.06L14.69 12 7.72 5.03a.75.75 0 0 1 1.06-1.06l7.5 7.5Z" clip-rule="evenodd"/>
  <path fill="#fff" d="m16.28 11.47 1.061-1.06-1.061 1.06Zm0 1.06 1.06 1.06h.001l-1.061-1.06Zm-7.5 7.5 1.023 1.097.019-.018.019-.019-1.061-1.06Zm-1.06-1.06-1.06-1.06-.02.018-.017.02L7.72 18.97ZM14.69 12l1.06 1.06L16.812 12l-1.06-1.06L14.69 12ZM7.72 5.03 6.623 6.052l.018.02.018.019L7.72 5.03Zm1.06-1.06 1.06-1.06-.018-.02-.02-.018L8.78 3.97Zm6.439 8.56a.75.75 0 0 1-.22-.53h3a2.25 2.25 0 0 0-.658-1.59l-2.122 2.12Zm-.22-.53a.75.75 0 0 1 .22-.53l2.122 2.12A2.25 2.25 0 0 0 18 12h-3Zm.22-.53-7.5 7.5 2.122 2.12 7.5-7.5-2.122-2.12Zm-7.462 7.462a.75.75 0 0 1 .525-.2l-.053 2.999a2.25 2.25 0 0 0 1.574-.604l-2.046-2.195Zm.525-.2a.75.75 0 0 1 .517.219l-2.121 2.121a2.25 2.25 0 0 0 1.551.659l.053-3Zm.517.219a.75.75 0 0 1 .22.517l-3 .053c.01.583.247 1.139.659 1.551l2.121-2.121Zm.22.517a.75.75 0 0 1-.202.524l-2.194-2.045a2.25 2.25 0 0 0-.604 1.574l3-.053Zm-.238.563 6.97-6.97-2.122-2.122-6.97 6.97 2.122 2.122Zm6.97-9.092L8.78 3.97 6.659 6.091l6.97 6.97 2.122-2.122ZM8.817 4.007a.75.75 0 0 1 .202.525l-3-.053a2.25 2.25 0 0 0 .604 1.573l2.194-2.045Zm.202.525a.75.75 0 0 1-.22.517L6.678 2.928a2.25 2.25 0 0 0-.659 1.55l3 .054Zm-.22.517a.75.75 0 0 1-.517.22l-.053-3a2.25 2.25 0 0 0-1.551.659l2.121 2.12Zm-.517.22a.75.75 0 0 1-.525-.202l2.046-2.195a2.25 2.25 0 0 0-1.574-.603l.053 3Zm-.563-.238 7.5 7.5 2.122-2.122-7.5-7.5-2.122 2.122Z" mask="url(#a)"/>
</symbol>


<symbol>
<path id="minus" d="M9 1H1" stroke="#2C2929" stroke-width="1.5" stroke-linecap="round" stroke-linejoin="round"/>
</symbol>

<symbol>
<path id="plus" d="M5 1V9M9 5H1" stroke="#2C2929" stroke-width="1.5" stroke-linecap="round" stroke-linejoin="round"/>
</symbol>

<symbol>
<path id="question" 
d="M4.617 2.283c-.583.068-1.098.327-1.552.781a2.742 2.742 0 0 0-.696 1.116l-.109.32-.011 8.273c-.007 5.648.003 8.323.031 8.428a.75.75 0 0 0 .924.519c.158-.041.374-.244 2.136-2.002l1.96-1.956 6.1-.011 6.1-.011.32-.109a2.736 2.736 0 0 0 1.116-.695c.333-.333.544-.671.695-1.116l.109-.32v-11l-.109-.32a2.742 2.742 0 0 0-.696-1.116c-.472-.471-.961-.709-1.606-.783-.426-.049-14.293-.047-14.712.002m14.911 1.59c.239.118.481.36.599.599l.093.188v10.68l-.093.188a1.452 1.452 0 0 1-.607.608c-.18.084-.189.084-6.46.104-5.204.017-6.297.029-6.38.075-.055.03-.734.686-1.51 1.459l-1.41 1.404v-7.204c0-7.899-.017-7.358.236-7.702.14-.19.38-.373.59-.45.131-.048 1.254-.056 7.454-.049l7.3.007.188.093" fill-rule="evenodd" fill="#000"
/>
</symbol>

<symbol>
<path id="box" 
d="M11.836 2.283c-.211.049-8.228 4.731-8.384 4.895a.849.849 0 0 0-.171.296c-.03.112-.039 1.415-.032 4.274l.011 4.112.092.161c.051.088.15.2.22.248.419.285 8.181 4.774 8.293 4.794a.873.873 0 0 0 .27 0c.112-.02 7.874-4.509 8.293-4.794a.905.905 0 0 0 .22-.248l.092-.161.011-4.112c.007-2.859-.002-4.162-.032-4.274a.849.849 0 0 0-.171-.296c-.14-.148-8.158-4.841-8.341-4.882a6.304 6.304 0 0 0-.167-.035.654.654 0 0 0-.204.022m3.407 3.472c1.767 1.031 3.218 1.891 3.224 1.91.009.034-6.21 3.677-6.403 3.751-.082.031-.533-.219-3.317-1.84-1.773-1.032-3.219-1.892-3.213-1.911.011-.04 6.383-3.775 6.451-3.781.024-.002 1.49.84 3.258 1.871M8.02 10.873l3.2 1.869.01 3.129c.006 1.721-.003 3.128-.02 3.127-.016-.001-1.47-.843-3.23-1.871l-3.2-1.869-.01-3.129c-.006-1.721.003-3.128.02-3.127.016.001 1.47.843 3.23 1.871m11.21 1.256-.01 3.129-3.2 1.869a267.048 267.048 0 0 1-3.23 1.871c-.017.001-.026-1.406-.02-3.127l.01-3.129 3.2-1.869c1.76-1.028 3.214-1.87 3.23-1.871.017-.001.026 1.406.02 3.127" fill-rule="evenodd" fill="#000"
/>
</symbol>

<symbol>
<path id="ok"
d="M11.4 3.282c-3.436.226-6.408 2.461-7.616 5.726-.689 1.863-.689 4.121 0 5.984 1.098 2.967 3.661 5.103 6.752 5.627a8.778 8.778 0 0 0 7.646-2.437 8.813 8.813 0 0 0 2.479-4.962c.078-.525.09-1.747.021-2.28-.292-2.272-1.453-4.36-3.198-5.751A8.769 8.769 0 0 0 11.4 3.282m1.975 1.595a7.25 7.25 0 0 1 3.743 2.005 7.257 7.257 0 0 1 2.01 3.765c.08.393.092.573.092 1.353s-.012.96-.092 1.353a7.257 7.257 0 0 1-2.01 3.765 7.257 7.257 0 0 1-3.765 2.01c-.393.08-.573.092-1.353.092-1.015 0-1.429-.06-2.233-.323a7.122 7.122 0 0 1-2.883-1.781 7.122 7.122 0 0 1-1.781-2.883c-.262-.802-.322-1.218-.322-2.233 0-1.015.06-1.431.322-2.233a7.122 7.122 0 0 1 1.781-2.883c1.125-1.126 2.462-1.805 4.057-2.063.551-.089 1.868-.059 2.434.056m1.052 4.419a.914.914 0 0 0-.235.13c-.045.041-.712.956-1.481 2.034a256.885 256.885 0 0 1-1.435 1.998c-.022.023-.324-.248-.77-.69-.748-.741-.895-.848-1.166-.848-.161 0-.4.089-.513.192-.208.187-.288.591-.171.859.072.165 2.247 2.331 2.397 2.387.062.023.197.042.3.041.382-.001.351.035 2.234-2.6.952-1.33 1.749-2.471 1.772-2.535a.837.837 0 0 0-.043-.612c-.148-.305-.569-.474-.889-.356" fill-rule="evenodd" fill="#000"
 />
</symbol>

<symbol>
<path id="car" d="M8.2 5.266c-1.253.028-3.213.165-3.666.256-.26.053-.629.27-.83.488-.204.222-.38.603-.426.918-.047.325-.047 9.402 0 9.766a1.696 1.696 0 0 0 1.176 1.393c.184.058.366.073.86.073h.626l.1.189c.055.105.208.3.34.434a2.03 2.03 0 0 0 2.141.477c.385-.136.824-.515 1.055-.91l.112-.19H15.439l.106.21c.15.296.577.708.895.863.948.464 2.112.096 2.645-.834l.135-.237.28-.001c.514-.003.883-.15 1.231-.491.321-.315.443-.597.462-1.069.04-1.003-.317-2.907-.821-4.376a15.078 15.078 0 0 0-1.754-3.567c-.503-.766-.851-1.072-1.485-1.306-.208-.077-.341-.089-1.233-.109l-1-.023-.027-.276a1.672 1.672 0 0 0-.93-1.3c-.289-.136-.337-.145-1.163-.221a49.259 49.259 0 0 0-4.58-.157m2.92 1.535c1.087.059 2.173.16 2.23.208.039.032.05.672.05 2.956v2.915H4.76V9.965c0-2.284.011-2.924.05-2.956.054-.045 1.186-.155 2.11-.206.866-.047 3.357-.049 4.2-.002m5.523 1.965c.322.096.606.448 1.206 1.498a14.446 14.446 0 0 1 1.833 5.807c.055.587.046.609-.262.609-.2 0-.213-.006-.262-.13-.149-.374-.541-.782-.947-.986-.944-.474-2.157-.082-2.654.859l-.137.259-.26-.011-.26-.011-.01-3.97-.01-3.97h.805c.488 0 .866.018.958.046M13.4 15.52v1.16H9.692l-.06-.15c-.106-.265-.41-.628-.668-.801-.502-.335-1.04-.44-1.611-.313a2.074 2.074 0 0 0-1.334 1.037l-.119.227h-.507c-.408 0-.52-.012-.57-.063-.054-.054-.063-.216-.063-1.16V14.36h8.64v1.16m-5.371 1.387a.519.519 0 0 1 .291.488c0 .149-.022.197-.155.33-.139.139-.177.155-.355.155a.506.506 0 0 1-.259-.952c.18-.104.292-.109.478-.021m9.532.013c.187.096.279.255.279.482a.501.501 0 0 1-.309.482c-.595.288-1.033-.623-.46-.956.186-.108.29-.109.49-.008" fill-rule="evenodd" fill="#000"
/>
</symbol>

<symbol>
<path id="diagonal-arrow" d="M7.94 3.547a.982.982 0 0 0-.239.126c-.592.406-.581 1.26.021 1.667l.178.12 4.599.011 4.599.01-6.724 6.73c-7.44 7.445-6.88 6.843-6.847 7.363.032.509.39.867.899.899.52.033-.082.593 7.363-6.847l6.73-6.724.01 4.599.011 4.599.108.167c.207.317.471.46.852.462.413.001.74-.205.895-.567l.086-.199-.011-5.894-.01-5.895-.121-.196a1.042 1.042 0 0 0-.317-.317l-.196-.121-5.903-.005c-3.247-.002-5.939.003-5.983.012" fill-rule="evenodd" fill="#000"/>
</symbol>

<symbol>
<path id="info" d="M21.8 5.133c-6.363.718-12.05 4.769-14.891 10.606a19.716 19.716 0 0 0-1.785 6.198c-.108.998-.108 3.128 0 4.126.699 6.436 4.684 12.111 10.516 14.977 1.902.934 4.219 1.61 6.297 1.836.427.046 1.356.084 2.063.084 2.22 0 3.974-.282 6.036-.969a18.937 18.937 0 0 0 11.955-11.957c.687-2.056.969-3.813.969-6.034 0-2.221-.282-3.978-.969-6.034A18.922 18.922 0 0 0 32.36 6.96c-1.902-.934-4.219-1.61-6.297-1.836-.914-.099-3.35-.094-4.263.009m4.56 2.035c3.486.471 6.766 2.06 9.371 4.541 2.767 2.634 4.538 6.074 5.113 9.931.176 1.181.176 3.539 0 4.72-.833 5.585-4.184 10.263-9.164 12.794-2.496 1.268-4.83 1.821-7.68 1.821-2.85 0-5.184-.553-7.68-1.821-4.98-2.531-8.331-7.209-9.164-12.794-.176-1.181-.176-3.539 0-4.72.834-5.589 4.181-10.262 9.164-12.794 3.15-1.6 6.489-2.158 10.04-1.678m-2.849 8.472c-.457.248-.618.926-.335 1.406.147.249.539.474.824.474.269 0 .695-.231.843-.455.157-.24.181-.797.044-1.051-.229-.429-.926-.618-1.376-.374m-.7 5.725c-.522.104-.997.362-1.153.626-.298.504-.065 1.194.48 1.422.269.112.335.11.762-.019l.468-.142.214.214.214.214-.791 3.18c-.771 3.102-.788 3.192-.707 3.669.16.936.561 1.493 1.358 1.885.459.226.609.26 1.104.253 1.322-.021 2.077-.84 1.558-1.692a1.119 1.119 0 0 0-.456-.388c-.269-.112-.335-.11-.762.019l-.468.142-.214-.214-.214-.214.791-3.18c.771-3.102.788-3.192.707-3.669-.159-.927-.565-1.498-1.325-1.861-.563-.269-1.056-.346-1.566-.245" fill-rule="evenodd" fill="#000"/>
</symbol>

<symbol>
<path id="big-car" d="M12.92 9.567c-4.015.197-6.734.446-7.336.671-.834.312-1.388.844-1.805 1.735l-.219.467-.021 11.636c-.019 10.395-.008 11.682.105 12.069.224.77.676 1.374 1.36 1.817.698.453 1.066.518 2.933.518 1.518 0 1.672.013 1.713.14.149.457.562 1.181.873 1.526a3.971 3.971 0 0 0 5.788.17c.445-.445 1.049-1.439 1.049-1.727 0-.091 1.198-.109 7.39-.109h7.389l.099.354c.055.195.241.571.415.837 1.57 2.403 5.124 2.403 6.694 0 .174-.266.36-.642.415-.837l.099-.354h.935c1.091 0 1.601-.123 2.226-.538a3.21 3.21 0 0 0 1.151-1.348c.239-.537.272-1.387.112-2.914a36.966 36.966 0 0 0-6.072-16.8c-.905-1.356-1.789-2.089-3.013-2.498-.482-.161-.71-.176-3.1-.204l-2.58-.03-.002-.414c-.004-1.176-.282-1.998-.903-2.672-.849-.923-1.289-1.026-5.735-1.346-1.6-.115-8.532-.219-9.96-.149m10.16 2.148c2.377.186 3.332.285 3.607.371.292.092.629.425.748.739.058.153.085 2.543.085 7.46v7.235h-22V12.824l.18-.265c.3-.441.595-.534 2.14-.67 1.228-.109 3.071-.234 4.72-.321 1.442-.076 9.028.03 10.52.147m11.916 4.719c.624.306.996.694 1.731 1.807 3.075 4.652 4.986 10 5.591 15.639.179 1.677.102 2.124-.422 2.443-.214.131-.405.156-1.156.157-.667 0-.9-.026-.9-.1 0-.267-.512-1.129-.948-1.594a3.922 3.922 0 0 0-5.784 0c-.436.465-.948 1.327-.948 1.594 0 .076-.317.1-1.32.1h-1.32V16.152l2.5.024 2.5.024.476.234M27.52 33v3.48H17.375l-.122-.358c-.403-1.183-1.65-2.264-2.915-2.527-.598-.124-1.619-.055-2.191.148-1.057.374-2.096 1.411-2.401 2.397l-.105.34h-1.64c-1.832-.001-1.993-.041-2.321-.579-.152-.248-.159-.409-.16-3.321v-3.06h22V33m-13.133 2.729c1.215.605 1.481 2.141.544 3.138-1.236 1.315-3.416.431-3.409-1.383.002-.592.184-1.014.618-1.43a1.966 1.966 0 0 1 2.247-.325m22.62.05c.697.44 1.043 1.112.973 1.889-.05.552-.198.865-.586 1.242-.429.417-.795.565-1.394.565-.599 0-.965-.148-1.394-.565-.388-.377-.536-.69-.586-1.242-.084-.925.469-1.76 1.38-2.084.088-.032.412-.047.721-.034.437.018.632.069.886.229" fill-rule="evenodd" fill="#000"/>
</symbol>

<symbol>
<path id="big-box" d="M14.493 8.892c-7.079 4.13-9.253 5.434-9.34 5.602-.095.184-.113 1.664-.113 9.51 0 8.548.011 9.309.134 9.518.101.171 2.412 1.556 9.297 5.573 8.495 4.955 9.19 5.345 9.529 5.345.338 0 1.032-.389 9.532-5.352 6.741-3.935 9.202-5.41 9.298-5.572.118-.201.13-1.066.13-9.512 0-7.842-.018-9.326-.113-9.51-.17-.33-18.346-10.923-18.804-10.96-.301-.024-.96.346-9.55 5.358m17.525 1.433c4.324 2.519 7.89 4.604 7.924 4.634.051.044-15.496 9.177-15.863 9.317-.072.028-3.268-1.79-8.08-4.596C11.622 17.126 8.04 15.02 8.04 15c0-.094 15.856-9.306 15.978-9.283.076.015 3.676 2.088 8 4.608M15.074 21.447l7.966 4.647v15.669l-.3-.158a1602.2 1602.2 0 0 1-8.02-4.666L7 32.43l-.02-7.815c-.013-4.812.008-7.815.054-7.815.041 0 3.659 2.091 8.04 4.647m25.946 3.168L41 32.43l-7.72 4.509a1602.2 1602.2 0 0 1-8.02 4.666l-.301.159.021-7.847.02-7.846 7.92-4.631c4.356-2.547 7.965-4.633 8.02-4.636.08-.003.097 1.583.08 7.811" fill-rule="evenodd" fill="#000"/>
</symbol>

<symbol>
<path id="big-protection" d="M24.133 4.528c-.135.061-.521.358-.858.659-2.953 2.643-6.583 4.481-10.538 5.336-1.183.256-2.589.421-4.069.477-1.815.07-1.777.033-2.339 2.174-.569 2.169-.783 3.905-.781 6.344.001 2.44.212 4.136.787 6.354 1.519 5.855 5.278 11.11 10.325 14.437 2.331 1.537 4.629 2.599 7.049 3.258l.791.216.791-.216c2.419-.659 4.713-1.719 7.049-3.257 4.407-2.902 7.841-7.276 9.668-12.317.986-2.72 1.439-5.356 1.445-8.398.004-2.47-.214-4.256-.782-6.421-.564-2.145-.518-2.104-2.372-2.177-5.529-.218-10.573-2.229-14.574-5.81-.576-.516-1.002-.781-1.243-.774a1.327 1.327 0 0 0-.349.115m.577 2.42c.238.263 1.954 1.552 2.751 2.065a25.078 25.078 0 0 0 12.117 3.937l.99.057.139.499c.994 3.57 1.029 7.946.094 11.636-1.172 4.623-3.707 8.705-7.358 11.846a23.026 23.026 0 0 1-8.107 4.497l-.836.259-.836-.259c-7.245-2.251-12.988-8.056-15.202-15.367-1.19-3.93-1.262-8.53-.195-12.5l.17-.633h.416c.669-.001 2.217-.159 3.274-.334 3.292-.547 6.673-1.855 9.433-3.648.789-.512 2.499-1.8 2.73-2.055.191-.211.229-.211.42 0m5.147 11.856c-.152.146-1.754 2.342-3.56 4.879a629.58 629.58 0 0 1-3.358 4.693c-.046.049-.812-.655-2.013-1.849-2.073-2.062-2.178-2.136-2.754-1.946-.589.195-.838 1.013-.464 1.529.09.125 1.205 1.261 2.478 2.523 2.489 2.47 2.529 2.5 3.147 2.296.278-.091.639-.57 4.196-5.55 2.141-2.997 3.912-5.547 3.934-5.665a.991.991 0 0 0-.968-1.176c-.298 0-.412.048-.638.266" fill-rule="evenodd" fill="#000"/>
</symbol>

<symbol>
<path id="kadaster" d="M52.876 2.55c.003.66.064.895.136.522.072-.374.069-.914-.006-1.2-.075-.287-.134.018-.13.678m44.798.507c-.261.372-.474.865-.474 1.094 0 .475-.852 3.231-1.242 4.02a2.975 2.975 0 0 0-.258 1.111c0 .324-.123.9-.272 1.279-.15.379-.572 1.701-.937 2.939-.366 1.237-.831 2.79-1.035 3.45-.203.66-.542 1.808-.753 2.55-.211.742-.703 2.318-1.093 3.5-.391 1.183-.71 2.366-.71 2.629 0 .264-.122.714-.271 1-.266.513-1.4 4.309-3.001 10.046-.15.536-.637 2.122-1.082 3.525-.445 1.402-.873 2.887-.95 3.3a8.364 8.364 0 0 1-.389 1.35c-.569 1.382-1.259 4.098-1.085 4.272.209.209.146.269 2.137-2.022.789-.908 2.932-3.248 4.763-5.201 3.339-3.562 4.378-4.98 4.378-5.973 0-.294.122-.769.271-1.055.149-.287.436-1.129.639-1.871.202-.742.539-1.89.748-2.55.209-.66.547-1.808.752-2.55.723-2.628.887-3.174 1.634-5.45.416-1.266.756-2.516.756-2.779 0-.264.122-.714.271-1 .149-.287.413-1.061.588-1.721.175-.66.661-2.348 1.082-3.75.42-1.402.916-3.09 1.102-3.75.186-.66.665-2.19 1.065-3.401 1.154-3.495 1.163-3.483-2.809-3.584-3.185-.08-3.375-.051-3.825.592M65.7 3.39c0 .676-.136.815-.825.84l-.825.03.75.207c.631.174.765.413.844 1.505.073 1.015-.053 1.455-.577 2.013-.669.712-.501.949.309.436.491-.311.986-5.091.576-5.556-.144-.163-.252.062-.252.525m12.083.405c-.41.883-.226 1.493.319 1.052.191-.155.618-.349.948-.43.558-.137.554-.15-.054-.182-.406-.022-.691-.262-.75-.632-.085-.531-.137-.51-.463.192m-18.533.667c.79.167.912.334.996 1.362.068.831-.087 1.42-.534 2.024-.346.469-.502.852-.346.852.157 0 .498.082.759.182.405.155.475-.124.475-1.89 0-2.268-.293-2.812-1.485-2.757-.709.033-.699.05.135.227m10.95.005c.616.17.782.446.93 1.545l.18 1.338.045-1.393c.046-1.429-.252-1.796-1.405-1.727-.281.017-.171.121.25.237m3.496.282c-.656.725-.649.756.46 2.019 1.06 1.208.943 1.899-.384 2.27-.665.186-.65.205.193.232.915.03 1.635-.413 1.635-1.005-.001-.173-.338-.707-.75-1.187-.95-1.104-.982-2.204-.075-2.569.652-.262.654-.272.046-.29-.345-.01-.851.228-1.125.53m8.954-.191c.33.188.699.487.82.666.126.186.223.035.225-.349.004-.54-.16-.673-.82-.666-.769.009-.784.032-.225.349m4.939.105c-.266.321-.479.367-.696.15-.639-.639-.792-.259-.748 1.862.038 1.824.074 1.967.225.887.127-.911.478-1.593 1.197-2.325.56-.571.88-1.037.712-1.037-.168 0-.478.208-.69.463m-29.965.612c.014.349.085.421.181.181.087-.216.076-.475-.024-.575-.099-.099-.17.078-.157.394m10.914-.155c-.109.176-.134.384-.055.463.079.079.223-.065.321-.32.202-.529.029-.622-.266-.143M52.242 7.35l.024 1.8.258-1.317c.155-.789.146-1.51-.023-1.8-.198-.338-.276.059-.259 1.317M53.7 6.292c-.669.515-.699.62-.279.968.259.214.709.773.999 1.241.29.468.599.78.687.692.087-.087-.126-.558-.474-1.047-.719-1.01-.792-1.567-.273-2.086.546-.546.183-.419-.66.232m27.205-.397c-.113.113-.205.702-.205 1.309 0 1.33.739 2.106 1.974 2.072.917-.024.809-.106-.529-.4-.948-.209-1.318-1.093-.834-1.997.339-.633.019-1.409-.406-.984m-18.453 1.32c-.053 1.398.317 2.085 1.125 2.085.324 0 .268-.132-.193-.455-.448-.314-.686-.85-.765-1.725l-.114-1.27-.053 1.365m-5.404.15c-.05 1.267.346 1.94 1.137 1.928.348-.005.3-.136-.192-.525-.384-.303-.706-.954-.777-1.568-.119-1.044-.12-1.043-.168.165m10.8 0c-.05 1.267.346 1.94 1.137 1.928.348-.005.3-.136-.192-.525-.384-.303-.706-.954-.777-1.568-.119-1.044-.12-1.043-.168.165m9.552.075c0 1.213.425 1.873 1.185 1.84.297-.013.212-.142-.236-.358-.588-.283-.683-.521-.592-1.479.06-.629.004-1.143-.124-1.143s-.233.513-.233 1.14m-7.015.622c-.481.531-.475.571.103.722.491.128.612.017.612-.562 0-.869-.061-.883-.715-.16M106.4 25.275c-.258.371-1.352 1.62-2.432 2.775-1.079 1.155-1.963 2.302-1.964 2.55-.001.248.244.855.545 1.35.3.495 1.129 1.98 1.842 3.3 2.562 4.743 3.092 5.705 3.307 6 .12.165.797 1.38 1.505 2.7 3.435 6.403 4.176 7.759 5.737 10.5.47.825 1.291 2.344 1.825 3.375l.971 1.875h4.582c4.212 0 4.582-.044 4.582-.54 0-.297-.124-.668-.276-.825-.152-.157-1.117-1.77-2.146-3.585a10195.428 10195.428 0 0 1-6.821-12.036c-2.16-3.815-4.339-7.635-4.842-8.488-.503-.854-.915-1.603-.915-1.664 0-.062-.607-1.14-1.35-2.396-.743-1.256-1.35-2.345-1.35-2.42 0-.326-1.874-3.146-2.091-3.146-.132 0-.451.304-.709.675" fill="#000" fill-rule="evenodd"/>
</symbol>

<symbol>
<path id="arrow-acordeon"
d="M.77.287A.832.832 0 0 0 .319.69C.276.777.27.817.27 1c0 .362-.241.092 2.699 3.031C5.908 6.971 5.638 6.73 6 6.73c.362 0 .092.241 3.031-2.699C11.971 1.092 11.73 1.362 11.73 1c0-.192-.005-.22-.058-.325a.899.899 0 0 0-.362-.356C11.223.276 11.182.27 11 .27c-.36 0-.13-.202-2.725 2.388L6 4.929 3.725 2.658C1.16.098 1.36.276 1.031.266A.932.932 0 0 0 .77.287" fill-rule="evenodd" fill="#000"/>
</symbol>

<symbol>
<path id="phone" d="M2.878.282a3.267 3.267 0 0 0-1.694.829 3.563 3.563 0 0 0-.682.997c-.221.53-.22.522-.237 2.329C.25 6.119.275 6.78.389 7.682a16.12 16.12 0 0 0 1.512 5.026c.377.767.555 1.077 1.054 1.83a15.809 15.809 0 0 0 4.507 4.507c.753.499 1.063.677 1.83 1.054a16.12 16.12 0 0 0 5.026 1.512c.899.114 1.564.139 3.245.124 1.595-.014 1.681-.018 1.937-.096.529-.16.98-.424 1.347-.792.375-.375.64-.83.795-1.366.078-.27.083-.351.083-1.423 0-1.022-.007-1.158-.07-1.351a2.23 2.23 0 0 0-.52-.813c-.323-.314-.486-.368-3.124-1.025-2.108-.525-2.469-.606-2.719-.606-.503 0-.996.209-1.334.565-.097.103-.419.509-.715.902-.376.499-.569.725-.639.749-.084.029-.17.008-.495-.123a11.65 11.65 0 0 1-6.465-6.465c-.131-.325-.152-.411-.123-.495.024-.07.25-.263.749-.639.393-.296.799-.618.902-.715.356-.338.565-.831.565-1.334 0-.25-.081-.611-.606-2.719C6.474 1.354 6.424 1.201 6.11.873a2.188 2.188 0 0 0-.776-.515C5.127.281 5.055.276 4.052.271a24.134 24.134 0 0 0-1.174.011m2.098 1.579c.101.094.146.255.701 2.475.567 2.268.591 2.381.542 2.499-.04.095-.241.266-.853.728-.441.333-.857.675-.925.76a1.832 1.832 0 0 0-.41 1.21c.002.305.034.429.257.988 1.175 2.938 3.489 5.416 6.366 6.822.493.24 1.111.496 1.391.574.282.08.734.069 1.01-.024.521-.176.668-.31 1.402-1.283.368-.488.634-.807.699-.838.096-.045.288-.003 2.493.548 2.25.562 2.395.603 2.492.706l.102.109-.011.975-.01.975-.118.248a1.675 1.675 0 0 1-.771.771l-.248.118h-1.943c-1.364 0-2.059-.014-2.329-.048-3.391-.416-6.264-1.773-8.63-4.076-2.462-2.397-3.924-5.388-4.357-8.911-.034-.27-.048-.965-.048-2.329V2.915l.116-.245c.192-.404.45-.643.889-.824.196-.08.249-.084 1.146-.085l.94-.001.107.101" fill-rule="evenodd" fill="#000"/>
</symbol>

<symbol>
<path id="letter" d="M3.936 4.28a3.063 3.063 0 0 0-2.375 1.66c-.323.651-.301.179-.301 6.56 0 6.381-.022 5.909.301 6.56a3.151 3.151 0 0 0 2.033 1.608c.289.068.754.072 8.406.072 9.092 0 8.366.024 9.026-.296.946-.458 1.576-1.332 1.692-2.346.056-.487.056-10.709 0-11.196-.138-1.21-1.009-2.207-2.233-2.554l-.305-.087-7.98-.006c-4.389-.003-8.108.009-8.264.025M20.36 5.903c.314.15.601.43.751.734.101.207.109.259.109.723 0 .467-.008.517-.115.749-.069.15-.19.319-.3.422-.223.209-8.011 4.894-8.305 4.997-.263.091-.737.091-1 0-.11-.039-1.991-1.143-4.18-2.455-2.903-1.74-4.025-2.432-4.146-2.559a2.094 2.094 0 0 1-.28-.394c-.108-.209-.114-.246-.114-.74 0-.486.007-.535.109-.743.129-.262.418-.568.645-.684.388-.198-.083-.188 8.506-.18l8.06.007.26.123M6.694 12.437c2.064 1.239 3.886 2.313 4.047 2.387.408.189.756.261 1.259.261.503 0 .851-.072 1.259-.261.216-.1 7.271-4.298 7.892-4.696l.09-.058-.01 4.035-.011 4.035-.109.223c-.15.304-.437.584-.751.734l-.26.123H3.9l-.26-.123a1.677 1.677 0 0 1-.751-.734l-.109-.223-.011-4.035-.01-4.035.09.058c.05.032 1.78 1.071 3.845 2.309" fill-rule="evenodd" fill="#000"/>
</symbol>

<symbol>
<path id="map" d="M11.9 2.279a7.92 7.92 0 0 0-3 .822 8.295 8.295 0 0 0-4.38 5.417c-.187.746-.248 1.259-.248 2.082.001 1.693.32 3.157 1.034 4.74 1.146 2.541 3.329 4.994 6.094 6.848.686.46.855.543 1.1.543.244 0 .408-.081 1.1-.544 1.914-1.281 3.616-2.916 4.818-4.627 1.286-1.831 2.035-3.751 2.263-5.8.069-.621.059-1.815-.019-2.34-.413-2.761-2.088-5.095-4.522-6.301a8.22 8.22 0 0 0-4.24-.84m1.549 1.542a6.78 6.78 0 0 1 5.405 4.489c.311.896.407 1.566.374 2.621-.047 1.485-.374 2.752-1.073 4.149-.903 1.807-2.31 3.484-4.175 4.98-.572.459-1.399 1.04-1.48 1.04-.081 0-.908-.581-1.48-1.04-2.883-2.311-4.638-5.006-5.144-7.9-.105-.6-.147-1.853-.079-2.369.164-1.244.644-2.439 1.349-3.36.934-1.219 2.325-2.14 3.759-2.488.766-.186 1.79-.235 2.544-.122M11.74 7.266c-1.325.119-2.413.819-3.021 1.946A3.483 3.483 0 0 0 8.271 11c0 .682.129 1.197.45 1.792a3.518 3.518 0 0 0 1.491 1.489 3.483 3.483 0 0 0 1.788.448c.68 0 1.197-.129 1.788-.448a3.518 3.518 0 0 0 1.491-1.489c.321-.595.45-1.11.45-1.792 0-.68-.129-1.197-.448-1.788a3.674 3.674 0 0 0-2.066-1.749c-.422-.147-1.066-.233-1.475-.197m.838 1.555c.371.097.696.291 1.003.598.46.46.659.937.659 1.581 0 .644-.199 1.121-.659 1.581-.46.46-.937.659-1.581.659-.644 0-1.121-.199-1.581-.659-.46-.46-.659-.937-.659-1.581 0-.644.199-1.121.659-1.581.3-.301.631-.5.985-.596.288-.077.881-.078 1.174-.002" fill-rule="evenodd" fill="#000"/>
</symbol>

<symbol>
<path id="instagram" d="M8.34.025c-1.522.044-2.485.134-3.192.3C2.925.844 1.276 2.287.56 4.34.291 5.111.156 5.825.071 6.92c-.072.935-.072 9.225 0 10.16.164 2.114.654 3.455 1.697 4.642 1.199 1.364 2.768 2.032 5.185 2.207.998.072 9.096.072 10.094 0 2.417-.175 3.986-.843 5.185-2.207 1.049-1.194 1.543-2.556 1.697-4.675.072-.998.072-9.096 0-10.094-.127-1.748-.473-2.936-1.16-3.973-.921-1.393-2.267-2.289-4.014-2.674C17.669.067 17 .036 12.58.023a385.84 385.84 0 0 0-4.24.002m8.577 2.212c1.698.118 2.616.445 3.439 1.223.91.862 1.284 1.827 1.406 3.628.067.991.096 6.998.041 8.632-.07 2.105-.163 2.714-.553 3.6-.267.606-.942 1.365-1.515 1.705-.596.352-1.421.604-2.275.693-1.141.118-7.062.17-9.44.081-1.686-.062-2.267-.146-3.056-.442a3.76 3.76 0 0 1-1.357-.854c-.77-.739-1.175-1.664-1.324-3.023-.129-1.18-.161-8.659-.045-10.392.123-1.823.496-2.77 1.44-3.659a3.577 3.577 0 0 1 1.225-.773c.699-.283 1.422-.396 2.897-.455 1.129-.046 8.353-.017 9.117.036m1.103 1.976c-.438.147-.745.413-.927.807-.094.202-.111.294-.112.581-.001.304.013.369.129.605.154.313.406.559.723.707.19.088.283.105.567.105.441-.001.745-.129 1.04-.441.299-.317.376-.516.378-.977.002-.331-.012-.41-.105-.609a1.56 1.56 0 0 0-.692-.692c-.263-.129-.747-.17-1.001-.086m-6.856 1.669c-1.509.19-2.968.969-3.918 2.092a6.15 6.15 0 0 0 1.283 9.174c.666.439 1.402.737 2.271.92.52.11 1.757.099 2.306-.02 2.529-.548 4.361-2.412 4.862-4.946.123-.623.123-1.581 0-2.204-.502-2.54-2.375-4.44-4.87-4.939-.465-.093-1.485-.134-1.934-.077m1.794 2.238c.803.196 1.679.753 2.153 1.369.608.79.868 1.541.868 2.511 0 .97-.26 1.721-.87 2.513-.857 1.114-2.459 1.699-3.861 1.41-1.085-.224-1.962-.804-2.565-1.696a4.862 4.862 0 0 1-.569-1.289c-.126-.509-.126-1.367 0-1.876.101-.409.357-.975.609-1.347.588-.865 1.615-1.501 2.71-1.675.35-.056 1.139-.014 1.525.08" fill="#2C2929" fill-rule="evenodd"/>
</symbol>

<symbol>
<path id="facebook" d="M11.78 2.023c-1.25.125-2.132.322-3.06.686-3.119 1.222-5.506 3.886-6.357 7.095a10.604 10.604 0 0 0 1.767 9.127c.433.578 1.405 1.569 1.95 1.989a10.501 10.501 0 0 0 4.329 1.997c.214.046.408.083.43.083.028 0 .041-1.211.041-3.68v-3.68H8.2v-3.08h2.674l.015-1.63c.016-1.619.017-1.633.124-2.03.388-1.444 1.352-2.374 2.76-2.663.713-.146 1.659-.136 2.897.029l.49.065V8.92h-.651c-1.163 0-1.574.101-1.952.48-.359.358-.435.737-.436 2.17l-.001.99h2.923l-.026.19c-.014.105-.118.793-.231 1.53l-.206 1.34-1.23.011-1.23.01v3.68c0 2.468.013 3.679.041 3.679.206 0 1.354-.301 1.888-.496a10.097 10.097 0 0 0 3.726-2.342 10.016 10.016 0 0 0 1.459-1.742c2.737-4.122 2.247-9.629-1.174-13.174a10.332 10.332 0 0 0-2.902-2.143 10.22 10.22 0 0 0-3.252-1.005c-.394-.058-1.802-.107-2.126-.075" fill="#2C2929" fill-rule="evenodd"/>
</symbol>

<symbol>
<path id="twitter" d="M15.98 3.043c-1.866.257-3.443 1.591-4.038 3.414-.182.557-.24.953-.239 1.623 0 .358.022.719.052.853.029.128.042.243.03.256-.013.012-.253 0-.534-.028A13.883 13.883 0 0 1 3.9 6.174c-.534-.427-1.537-1.403-1.92-1.869-.154-.187-.293-.341-.309-.343-.093-.007-.455.922-.576 1.478-.104.478-.104 1.562 0 2.04a5.45 5.45 0 0 0 .797 1.88c.196.292.866.998 1.148 1.21l.14.105-.22-.02a5.322 5.322 0 0 1-1.756-.493l-.257-.129.025.393a5.06 5.06 0 0 0 1.404 3.208 4.932 4.932 0 0 0 2.142 1.323l.373.111-.176.044c-.512.127-1.46.159-1.891.062-.111-.025-.114-.021-.087.09.06.245.345.83.568 1.166.83 1.25 2.202 2.074 3.669 2.203l.314.027-.292.218a10.438 10.438 0 0 1-2.369 1.299c-1.317.491-2.574.685-4.015.617a10.474 10.474 0 0 0-.561-.018c-.021.019.937.564 1.369.778 1.845.915 3.7 1.375 5.78 1.434 2.752.078 5.352-.597 7.577-1.967 3.297-2.029 5.667-5.525 6.482-9.559.186-.921.26-1.597.289-2.626l.024-.863.319-.257a11.335 11.335 0 0 0 1.374-1.356c.345-.415.711-.917.686-.942-.01-.011-.104.019-.208.065-.288.127-.949.348-1.365.456-.354.093-1.013.221-1.134.221-.031 0 .077-.093.24-.207.642-.45 1.311-1.276 1.635-2.021.257-.59.276-.571-.286-.276-.729.382-1.518.681-2.289.865l-.316.076-.239-.221c-.69-.638-1.486-1.066-2.349-1.26-.403-.091-1.259-.128-1.66-.073" fill="#2C2929" fill-rule="evenodd"/>
</symbol>
 
 <symbol>
 <path id="send-mail-arrow" d="M16.449 9.062c-.17.073-.388.361-.425.563a.85.85 0 0 0 .024.358c.04.122.9 1.046 2.745 2.95l2.687 2.774-6.513.026c-6.171.026-6.521.032-6.656.123-.173.118-.311.394-.311.624 0 .23.138.506.311.624.135.091.485.097 6.656.123l6.514.026-2.639 2.72c-1.452 1.496-2.685 2.792-2.741 2.88-.218.347-.078.886.279 1.07.211.11.573.079.75-.063.275-.22 6.69-6.867 6.78-7.024.124-.217.096-.61-.056-.803-.111-.142-6.247-6.471-6.592-6.801a.595.595 0 0 0-.446-.199 1.053 1.053 0 0 0-.367.029" fill="#fff" fill-rule="evenodd"/>
</symbol>

<symbol>
<path id="language" d="M4.163 7.59a.766.766 0 0 0-.363.915c.04.126.755.863 3.834 3.949 2.082 2.087 3.866 3.847 3.964 3.91a.722.722 0 0 0 .804 0c.289-.188 7.704-7.637 7.776-7.813.159-.382-.027-.85-.391-.988a1.028 1.028 0 0 0-.574-.001c-.064.023-1.664 1.592-3.663 3.59L12 14.7l-3.55-3.548c-1.999-1.998-3.599-3.567-3.663-3.59a.938.938 0 0 0-.624.028" fill-rule="evenodd" fill="#000"
/>
</symbol>

<symbol>
</symbol>
</svg>