<svg xmlns="http://www.w3.org/2000/svg">

<symbol>
<path id="star" d="M7.65335 2.33265C7.68155 2.26387 7.72957 2.20503 7.7913 2.16362C7.85303 2.12221 7.92568 2.1001 8.00002 2.1001C8.07435 2.1001 8.14701 2.12221 8.20874 2.16362C8.27047 2.20503 8.31849 2.26387 8.34669 2.33265L9.76335 5.73998C9.78987 5.80374 9.83346 5.85894 9.88933 5.89952C9.9452 5.9401 10.0112 5.96448 10.08 5.96998L13.7587 6.26465C14.0914 6.29131 14.226 6.70665 13.9727 6.92331L11.17 9.32465C11.1177 9.36944 11.0786 9.42778 11.0572 9.49328C11.0358 9.55878 11.0329 9.62891 11.0487 9.69598L11.9054 13.286C11.9226 13.358 11.9181 13.4335 11.8924 13.503C11.8667 13.5724 11.821 13.6327 11.7611 13.6763C11.7012 13.7198 11.6297 13.7445 11.5557 13.7475C11.4817 13.7504 11.4085 13.7313 11.3454 13.6926L8.19535 11.7693C8.13651 11.7335 8.06893 11.7145 8.00002 11.7145C7.93111 11.7145 7.86353 11.7335 7.80469 11.7693L4.65469 13.6933C4.59152 13.732 4.51832 13.7511 4.44432 13.7481C4.37033 13.7452 4.29885 13.7204 4.23893 13.6769C4.17901 13.6334 4.13333 13.5731 4.10765 13.5036C4.08198 13.4342 4.07747 13.3587 4.09469 13.2866L4.95135 9.69598C4.96724 9.62891 4.96432 9.55876 4.94291 9.49325C4.92151 9.42773 4.88244 9.36939 4.83002 9.32465L2.02735 6.92331C1.97123 6.87505 1.93063 6.81128 1.91065 6.74C1.89068 6.66873 1.89222 6.59314 1.9151 6.52274C1.93797 6.45235 1.98114 6.39028 2.0392 6.34436C2.09725 6.29844 2.16758 6.2707 2.24135 6.26465L5.92002 5.96998C5.98885 5.96448 6.05483 5.9401 6.1107 5.89952C6.16657 5.85894 6.21017 5.80374 6.23669 5.73998L7.65335 2.33265Z" fill="#FFF4A8" stroke="#FFF4A8" stroke-width="1.5" stroke-linecap="round" stroke-linejoin="round"/>
</symbol>

<symbol>
<path id="search"
d="M9.822 2.283c-2.65.216-5.05 1.724-6.433 4.043-1.082 1.815-1.412 4.172-.871 6.236a8.164 8.164 0 0 0 2.16 3.76 8.173 8.173 0 0 0 4.662 2.34c.589.087 1.731.087 2.32 0a8.458 8.458 0 0 0 3.8-1.578l.32-.239 2.42 2.414c2.329 2.322 2.427 2.414 2.61 2.452.58.12 1.021-.321.901-.901-.038-.183-.13-.281-2.452-2.61l-2.414-2.42.239-.32a8.59 8.59 0 0 0 1.417-2.98c.31-1.237.31-2.72 0-3.96a8.318 8.318 0 0 0-3.573-4.975c-1.468-.94-3.35-1.405-5.106-1.262m1.738 1.555c2.466.418 4.423 2.037 5.284 4.372.834 2.264.341 4.894-1.261 6.718A6.7 6.7 0 0 1 10.5 17.24a6.728 6.728 0 0 1-6.74-6.74 6.62 6.62 0 0 1 1.977-4.763C6.755 4.718 7.973 4.09 9.416 3.839c.58-.101 1.548-.102 2.144-.001" fill-rule="evenodd" fill="#000"
 />
</symbol>

<symbol>
<path id="heart" 
d="M7.06 3.041c-2.38.268-4.32 2.047-4.723 4.332-.076.427-.084 1.368-.018 1.947.389 3.396 2.618 6.737 6.461 9.685 1.062.815 2.688 1.866 3.029 1.957.305.082.499.003 1.448-.59 2.844-1.778 5.295-4.111 6.714-6.392 1.178-1.893 1.749-3.728 1.756-5.64.004-1.18-.256-2.046-.901-3-.862-1.276-2.353-2.138-3.986-2.303-1.754-.177-3.444.48-4.67 1.816l-.17.185-.17-.185c-.842-.917-1.849-1.492-3.042-1.736a6.704 6.704 0 0 0-1.728-.076m1.528 1.562a3.939 3.939 0 0 1 2.673 2.07c.171.33.315.46.583.527.382.096.655-.066.896-.529.561-1.079 1.478-1.787 2.692-2.076.658-.157 1.627-.095 2.268.146 1.019.384 1.757 1.051 2.197 1.984.252.535.307.769.331 1.421.065 1.717-.53 3.562-1.724 5.347-1.372 2.05-3.57 4.08-6.174 5.702l-.33.206-.33-.206c-2.604-1.622-4.802-3.652-6.174-5.702-1.194-1.785-1.789-3.63-1.724-5.347.024-.652.079-.886.331-1.421.779-1.654 2.654-2.541 4.485-2.122" fill-rule="evenodd" fill="#000"
/>
</symbol>

<symbol>
<path id="barket"
 d="M2.094 2.278c-.657.157-.791 1.029-.208 1.362.168.097.203.1 1.034.113.797.012.866.019.947.094a.617.617 0 0 1 .128.187c.023.058.601 2.212 1.286 4.786l1.262 4.743c.013.046-.041.081-.213.134a3.82 3.82 0 0 0-1.52.958c-.636.672-.981 1.452-1.037 2.35-.022.344-.015.405.063.566a.852.852 0 0 0 .252.295l.165.114 7.984.012c4.39.006 8.062 0 8.158-.014.256-.036.547-.332.587-.597.051-.34-.094-.634-.384-.782-.152-.078-.269-.079-7.676-.079-7.174 0-7.522-.003-7.522-.071 0-.138.304-.581.57-.833.149-.14.378-.31.51-.376.496-.25.183-.239 6.52-.24 4.094 0 5.827-.013 5.94-.045.272-.075.405-.266.837-1.198a69.086 69.086 0 0 0 1.551-3.617c.377-.963 1.003-2.709 1.05-2.927.056-.261-.125-.622-.377-.753-.152-.078-1.763-.46-3.041-.72-3.993-.814-7.904-1.217-11.827-1.219L5.686 4.52l-.04-.13a19.105 19.105 0 0 1-.147-.528 4.012 4.012 0 0 0-.207-.598c-.251-.495-.831-.905-1.392-.983-.323-.045-1.619-.047-1.806-.003m7.36 3.782a57.62 57.62 0 0 1 7.306.783c1.383.235 3.797.74 3.866.81.084.084-1.333 3.622-2.102 5.247l-.283.6-5.079.01-5.08.01-.059-.21C7.94 13.02 6.08 6.035 6.08 6.016c0-.039 2.262-.01 3.374.044M4.772 18.832a1.563 1.563 0 0 0-.901.831c-.074.161-.091.267-.091.577 0 .334.014.41.115.629a1.487 1.487 0 1 0 1.974-1.971c-.328-.148-.789-.176-1.097-.066m12.799-.016c-.414.135-.74.423-.926.819-.091.196-.105.276-.105.625 0 .347.014.429.103.62.529 1.126 2.177 1.126 2.712 0 .092-.192.105-.271.105-.621 0-.371-.01-.42-.13-.665-.25-.508-.701-.8-1.27-.821a1.59 1.59 0 0 0-.489.043" fill-rule="evenodd"
 />
</symbol>

<symbol>
<path id="user"
 d="M11.42 2.283c-2.311.135-4.451 1.067-6.157 2.68-.854.808-1.712 2.029-2.17 3.091a9.493 9.493 0 0 0-.809 3.414c-.153 2.723.799 5.289 2.706 7.295 1.652 1.737 3.953 2.801 6.391 2.956a9.712 9.712 0 0 0 9.318-5.345 9.826 9.826 0 0 0 .982-3.274c.048-.381.06-1.634.019-2.014-.222-2.066-1.004-3.901-2.311-5.428a9.723 9.723 0 0 0-7.969-3.375m1.648 1.538a8.252 8.252 0 0 1 6.908 6.078c.203.763.267 1.275.267 2.126a8.17 8.17 0 0 1-2.192 5.575 5.2 5.2 0 0 1-.365-.324 8.397 8.397 0 0 0-4.586-2.202c-.464-.068-1.736-.068-2.2 0a8.397 8.397 0 0 0-4.586 2.202 4.46 4.46 0 0 1-.368.324c-.012 0-.15-.156-.308-.348a8.24 8.24 0 0 1-1.874-5.713 8.348 8.348 0 0 1 1.826-4.74c.308-.383.985-1.035 1.394-1.345 1.21-.916 2.594-1.483 4.029-1.65.49-.057 1.551-.048 2.055.017m-1.621 2.225c-1.237.177-2.395 1.072-2.883 2.228-.846 2.004.163 4.296 2.204 5.006.419.146.75.199 1.232.199s.813-.053 1.232-.199c2.039-.709 3.049-3.004 2.204-5.006-.649-1.537-2.315-2.468-3.989-2.228m1.112 1.52c.718.154 1.423.86 1.621 1.622.078.299.076.837-.003 1.146-.182.704-.775 1.326-1.497 1.571-.164.056-.337.074-.68.074-.697 0-1.122-.175-1.6-.659-.441-.447-.64-.935-.64-1.567 0-.391.071-.699.238-1.03.136-.268.492-.671.752-.85.496-.341 1.142-.451 1.809-.307m.501 9.018a6.706 6.706 0 0 1 3.538 1.728l.333.308-.376.255c-.72.488-1.779.945-2.697 1.163-1.142.272-2.581.27-3.735-.004-.903-.215-1.956-.669-2.675-1.155l-.372-.251.132-.137c.073-.076.276-.26.452-.409a6.758 6.758 0 0 1 5.4-1.498" fill-rule="evenodd" fill="#000"
 />
</symbol>

<symbol>
<path id="burger" d="M3.54 6.034c-.739.242-.696 1.28.059 1.442.29.062 16.512.062 16.802 0a.743.743 0 0 0 .589-.82c-.024-.207-.104-.334-.326-.514l-.151-.122-8.447-.006c-4.645-.004-8.482.005-8.526.02m.031 5.245c-.176.042-.305.132-.438.307-.098.128-.113.183-.113.417 0 .24.013.286.122.423a1.1 1.1 0 0 0 .299.244l.176.09h16.766l.176-.09a1.1 1.1 0 0 0 .299-.244c.109-.137.122-.182.122-.426 0-.245-.012-.288-.124-.426a1.21 1.21 0 0 0-.26-.234c-.135-.079-.214-.08-8.516-.086-4.609-.004-8.438.008-8.509.025m-.151 5.304a.662.662 0 0 0-.345.357.748.748 0 0 0-.02.591.982.982 0 0 0 .438.427C3.571 17.987 6.177 18 12 18c5.823 0 8.429-.013 8.507-.042a.982.982 0 0 0 .438-.427.733.733 0 0 0-.007-.561.635.635 0 0 0-.346-.374c-.145-.074-.386-.076-8.6-.076-7.586 0-8.464.007-8.572.063" fill-rule="evenodd" fill="#000"/>
</symbol>

<symbol>
    <path id="swiper-left-arrow" fill-rule="evenodd" d="M7.72 12.53a.75.75 0 0 1 0-1.06l7.5-7.5a.75.75 0 1 1 1.06 1.06L9.31 12l6.97 6.97a.75.75 0 1 1-1.06 1.06l-7.5-7.5Z" clip-rule="evenodd"/>
  <path fill="#fff" fill-rule="evenodd" d="M7.72 12.53a.75.75 0 0 1 0-1.06l7.5-7.5a.75.75 0 1 1 1.06 1.06L9.31 12l6.97 6.97a.75.75 0 1 1-1.06 1.06l-7.5-7.5Z" clip-rule="evenodd"/>
  <path fill="#fff" d="M7.72 12.53 6.66 13.59l1.061-1.06ZM7.501 12h1.5-1.5Zm.22-.53L6.66 10.41h-.001l1.061 1.06Zm7.5-7.5 1.06 1.06.019-.018.018-.02L15.22 3.97Zm1.06 1.06-1.023-1.097-.02.018-.018.018 1.06 1.061ZM9.31 12 8.25 10.94 7.189 12l1.06 1.06L9.31 12Zm6.97 6.97-1.061 1.06.018.02.02.018 1.022-1.098Zm-1.06 1.06 1.097-1.022-.018-.02-.019-.018-1.06 1.06Zm-6.44-8.56c.141.14.22.331.22.53h-3c0 .596.237 1.168.658 1.59l2.123-2.12Zm.22.53a.75.75 0 0 1-.22.53L6.66 10.41A2.25 2.25 0 0 0 6.001 12h3Zm-.22.53 7.5-7.5-2.121-2.12-7.5 7.5 2.121 2.12Zm7.537-7.537a.75.75 0 0 1-.244.174l-1.22-2.74a2.25 2.25 0 0 0-.731.52l2.195 2.046Zm-.244.174a.75.75 0 0 1-.292.064l-.053-3a2.25 2.25 0 0 0-.876.195l1.221 2.74Zm-.292.064a.75.75 0 0 1-.294-.054l1.124-2.782a2.25 2.25 0 0 0-.883-.163l.053 3Zm-.294-.054a.75.75 0 0 1-.25-.165L17.36 2.89a2.249 2.249 0 0 0-.748-.495l-1.124 2.782Zm-.25-.165a.75.75 0 0 1-.164-.25l2.781-1.123a2.25 2.25 0 0 0-.495-.749l-2.121 2.122Zm-.164-.25a.752.752 0 0 1-.055-.294l3 .053a2.252 2.252 0 0 0-.164-.882l-2.781 1.123Zm-.055-.294a.75.75 0 0 1 .065-.292l2.74 1.221a2.25 2.25 0 0 0 .195-.876l-3-.053Zm.065-.292c.04-.092.1-.175.174-.243l2.045 2.195c.221-.206.398-.455.521-.73l-2.74-1.222Zm.136-.207-6.97 6.97 2.121 2.122 6.97-6.97-2.121-2.122Zm-6.97 9.092 6.97 6.97 2.121-2.121-6.97-6.97-2.121 2.12Zm7.008 7.007a.749.749 0 0 1-.174-.244l2.74-1.22a2.248 2.248 0 0 0-.521-.731l-2.045 2.195Zm-.174-.244a.75.75 0 0 1-.065-.292l3-.053a2.251 2.251 0 0 0-.195-.876l-2.74 1.221Zm-.065-.292c-.002-.1.017-.2.055-.294l2.781 1.123c.113-.28.169-.58.164-.882l-3 .053Zm.055-.294a.75.75 0 0 1 .165-.25l2.121 2.122a2.25 2.25 0 0 0 .495-.748l-2.781-1.124Zm.165-.25a.751.751 0 0 1 .25-.165l1.123 2.782a2.25 2.25 0 0 0 .748-.495l-2.121-2.122Zm.25-.165a.75.75 0 0 1 .293-.054l-.053 3c.302.005.602-.05.883-.164l-1.124-2.782Zm.293-.054c.101.002.2.024.292.065l-1.22 2.74c.275.123.573.19.875.194l.053-2.999Zm.292.065a.75.75 0 0 1 .244.174l-2.195 2.045c.206.22.454.398.73.521l1.221-2.74Zm.207.136-7.5-7.5-2.121 2.12 7.5 7.5 2.121-2.12Z" mask="url(#a)"/>
</symbol>

<symbol>
    <path id="swiper-right-arrow" fill-rule="evenodd" d="M16.28 11.47a.75.75 0 0 1 0 1.06l-7.5 7.5a.75.75 0 0 1-1.06-1.06L14.69 12 7.72 5.03a.75.75 0 0 1 1.06-1.06l7.5 7.5Z" clip-rule="evenodd"/>
  <path fill="#fff" fill-rule="evenodd" d="M16.28 11.47a.75.75 0 0 1 0 1.06l-7.5 7.5a.75.75 0 0 1-1.06-1.06L14.69 12 7.72 5.03a.75.75 0 0 1 1.06-1.06l7.5 7.5Z" clip-rule="evenodd"/>
  <path fill="#fff" d="m16.28 11.47 1.061-1.06-1.061 1.06Zm0 1.06 1.06 1.06h.001l-1.061-1.06Zm-7.5 7.5 1.023 1.097.019-.018.019-.019-1.061-1.06Zm-1.06-1.06-1.06-1.06-.02.018-.017.02L7.72 18.97ZM14.69 12l1.06 1.06L16.812 12l-1.06-1.06L14.69 12ZM7.72 5.03 6.623 6.052l.018.02.018.019L7.72 5.03Zm1.06-1.06 1.06-1.06-.018-.02-.02-.018L8.78 3.97Zm6.439 8.56a.75.75 0 0 1-.22-.53h3a2.25 2.25 0 0 0-.658-1.59l-2.122 2.12Zm-.22-.53a.75.75 0 0 1 .22-.53l2.122 2.12A2.25 2.25 0 0 0 18 12h-3Zm.22-.53-7.5 7.5 2.122 2.12 7.5-7.5-2.122-2.12Zm-7.462 7.462a.75.75 0 0 1 .525-.2l-.053 2.999a2.25 2.25 0 0 0 1.574-.604l-2.046-2.195Zm.525-.2a.75.75 0 0 1 .517.219l-2.121 2.121a2.25 2.25 0 0 0 1.551.659l.053-3Zm.517.219a.75.75 0 0 1 .22.517l-3 .053c.01.583.247 1.139.659 1.551l2.121-2.121Zm.22.517a.75.75 0 0 1-.202.524l-2.194-2.045a2.25 2.25 0 0 0-.604 1.574l3-.053Zm-.238.563 6.97-6.97-2.122-2.122-6.97 6.97 2.122 2.122Zm6.97-9.092L8.78 3.97 6.659 6.091l6.97 6.97 2.122-2.122ZM8.817 4.007a.75.75 0 0 1 .202.525l-3-.053a2.25 2.25 0 0 0 .604 1.573l2.194-2.045Zm.202.525a.75.75 0 0 1-.22.517L6.678 2.928a2.25 2.25 0 0 0-.659 1.55l3 .054Zm-.22.517a.75.75 0 0 1-.517.22l-.053-3a2.25 2.25 0 0 0-1.551.659l2.121 2.12Zm-.517.22a.75.75 0 0 1-.525-.202l2.046-2.195a2.25 2.25 0 0 0-1.574-.603l.053 3Zm-.563-.238 7.5 7.5 2.122-2.122-7.5-7.5-2.122 2.122Z" mask="url(#a)"/>
</symbol>


<symbol>
<path id="minus" d="M9 1H1" stroke="#2C2929" stroke-width="1.5" stroke-linecap="round" stroke-linejoin="round"/>
</symbol>

<symbol>
<path id="plus" d="M5 1V9M9 5H1" stroke="#2C2929" stroke-width="1.5" stroke-linecap="round" stroke-linejoin="round"/>
</symbol>

<symbol>
<path id="question" 
d="M4.617 2.283c-.583.068-1.098.327-1.552.781a2.742 2.742 0 0 0-.696 1.116l-.109.32-.011 8.273c-.007 5.648.003 8.323.031 8.428a.75.75 0 0 0 .924.519c.158-.041.374-.244 2.136-2.002l1.96-1.956 6.1-.011 6.1-.011.32-.109a2.736 2.736 0 0 0 1.116-.695c.333-.333.544-.671.695-1.116l.109-.32v-11l-.109-.32a2.742 2.742 0 0 0-.696-1.116c-.472-.471-.961-.709-1.606-.783-.426-.049-14.293-.047-14.712.002m14.911 1.59c.239.118.481.36.599.599l.093.188v10.68l-.093.188a1.452 1.452 0 0 1-.607.608c-.18.084-.189.084-6.46.104-5.204.017-6.297.029-6.38.075-.055.03-.734.686-1.51 1.459l-1.41 1.404v-7.204c0-7.899-.017-7.358.236-7.702.14-.19.38-.373.59-.45.131-.048 1.254-.056 7.454-.049l7.3.007.188.093" fill-rule="evenodd" fill="#000"
/>
</symbol>

<symbol>
<path id="box" 
d="M11.836 2.283c-.211.049-8.228 4.731-8.384 4.895a.849.849 0 0 0-.171.296c-.03.112-.039 1.415-.032 4.274l.011 4.112.092.161c.051.088.15.2.22.248.419.285 8.181 4.774 8.293 4.794a.873.873 0 0 0 .27 0c.112-.02 7.874-4.509 8.293-4.794a.905.905 0 0 0 .22-.248l.092-.161.011-4.112c.007-2.859-.002-4.162-.032-4.274a.849.849 0 0 0-.171-.296c-.14-.148-8.158-4.841-8.341-4.882a6.304 6.304 0 0 0-.167-.035.654.654 0 0 0-.204.022m3.407 3.472c1.767 1.031 3.218 1.891 3.224 1.91.009.034-6.21 3.677-6.403 3.751-.082.031-.533-.219-3.317-1.84-1.773-1.032-3.219-1.892-3.213-1.911.011-.04 6.383-3.775 6.451-3.781.024-.002 1.49.84 3.258 1.871M8.02 10.873l3.2 1.869.01 3.129c.006 1.721-.003 3.128-.02 3.127-.016-.001-1.47-.843-3.23-1.871l-3.2-1.869-.01-3.129c-.006-1.721.003-3.128.02-3.127.016.001 1.47.843 3.23 1.871m11.21 1.256-.01 3.129-3.2 1.869a267.048 267.048 0 0 1-3.23 1.871c-.017.001-.026-1.406-.02-3.127l.01-3.129 3.2-1.869c1.76-1.028 3.214-1.87 3.23-1.871.017-.001.026 1.406.02 3.127" fill-rule="evenodd" fill="#000"
/>
</symbol>

<symbol>
<path id="ok"
d="M11.4 3.282c-3.436.226-6.408 2.461-7.616 5.726-.689 1.863-.689 4.121 0 5.984 1.098 2.967 3.661 5.103 6.752 5.627a8.778 8.778 0 0 0 7.646-2.437 8.813 8.813 0 0 0 2.479-4.962c.078-.525.09-1.747.021-2.28-.292-2.272-1.453-4.36-3.198-5.751A8.769 8.769 0 0 0 11.4 3.282m1.975 1.595a7.25 7.25 0 0 1 3.743 2.005 7.257 7.257 0 0 1 2.01 3.765c.08.393.092.573.092 1.353s-.012.96-.092 1.353a7.257 7.257 0 0 1-2.01 3.765 7.257 7.257 0 0 1-3.765 2.01c-.393.08-.573.092-1.353.092-1.015 0-1.429-.06-2.233-.323a7.122 7.122 0 0 1-2.883-1.781 7.122 7.122 0 0 1-1.781-2.883c-.262-.802-.322-1.218-.322-2.233 0-1.015.06-1.431.322-2.233a7.122 7.122 0 0 1 1.781-2.883c1.125-1.126 2.462-1.805 4.057-2.063.551-.089 1.868-.059 2.434.056m1.052 4.419a.914.914 0 0 0-.235.13c-.045.041-.712.956-1.481 2.034a256.885 256.885 0 0 1-1.435 1.998c-.022.023-.324-.248-.77-.69-.748-.741-.895-.848-1.166-.848-.161 0-.4.089-.513.192-.208.187-.288.591-.171.859.072.165 2.247 2.331 2.397 2.387.062.023.197.042.3.041.382-.001.351.035 2.234-2.6.952-1.33 1.749-2.471 1.772-2.535a.837.837 0 0 0-.043-.612c-.148-.305-.569-.474-.889-.356" fill-rule="evenodd" fill="#000"
 />
</symbol>

<symbol>
<path id="car" d="M8.2 5.266c-1.253.028-3.213.165-3.666.256-.26.053-.629.27-.83.488-.204.222-.38.603-.426.918-.047.325-.047 9.402 0 9.766a1.696 1.696 0 0 0 1.176 1.393c.184.058.366.073.86.073h.626l.1.189c.055.105.208.3.34.434a2.03 2.03 0 0 0 2.141.477c.385-.136.824-.515 1.055-.91l.112-.19H15.439l.106.21c.15.296.577.708.895.863.948.464 2.112.096 2.645-.834l.135-.237.28-.001c.514-.003.883-.15 1.231-.491.321-.315.443-.597.462-1.069.04-1.003-.317-2.907-.821-4.376a15.078 15.078 0 0 0-1.754-3.567c-.503-.766-.851-1.072-1.485-1.306-.208-.077-.341-.089-1.233-.109l-1-.023-.027-.276a1.672 1.672 0 0 0-.93-1.3c-.289-.136-.337-.145-1.163-.221a49.259 49.259 0 0 0-4.58-.157m2.92 1.535c1.087.059 2.173.16 2.23.208.039.032.05.672.05 2.956v2.915H4.76V9.965c0-2.284.011-2.924.05-2.956.054-.045 1.186-.155 2.11-.206.866-.047 3.357-.049 4.2-.002m5.523 1.965c.322.096.606.448 1.206 1.498a14.446 14.446 0 0 1 1.833 5.807c.055.587.046.609-.262.609-.2 0-.213-.006-.262-.13-.149-.374-.541-.782-.947-.986-.944-.474-2.157-.082-2.654.859l-.137.259-.26-.011-.26-.011-.01-3.97-.01-3.97h.805c.488 0 .866.018.958.046M13.4 15.52v1.16H9.692l-.06-.15c-.106-.265-.41-.628-.668-.801-.502-.335-1.04-.44-1.611-.313a2.074 2.074 0 0 0-1.334 1.037l-.119.227h-.507c-.408 0-.52-.012-.57-.063-.054-.054-.063-.216-.063-1.16V14.36h8.64v1.16m-5.371 1.387a.519.519 0 0 1 .291.488c0 .149-.022.197-.155.33-.139.139-.177.155-.355.155a.506.506 0 0 1-.259-.952c.18-.104.292-.109.478-.021m9.532.013c.187.096.279.255.279.482a.501.501 0 0 1-.309.482c-.595.288-1.033-.623-.46-.956.186-.108.29-.109.49-.008" fill-rule="evenodd" fill="#000"
/>
</symbol>

<symbol>
<path id="diagonal-arrow" d="M7.94 3.547a.982.982 0 0 0-.239.126c-.592.406-.581 1.26.021 1.667l.178.12 4.599.011 4.599.01-6.724 6.73c-7.44 7.445-6.88 6.843-6.847 7.363.032.509.39.867.899.899.52.033-.082.593 7.363-6.847l6.73-6.724.01 4.599.011 4.599.108.167c.207.317.471.46.852.462.413.001.74-.205.895-.567l.086-.199-.011-5.894-.01-5.895-.121-.196a1.042 1.042 0 0 0-.317-.317l-.196-.121-5.903-.005c-3.247-.002-5.939.003-5.983.012" fill-rule="evenodd" fill="#000"/>
</symbol>

<symbol>
</symbol>
</svg>